<?xml version="1.0" encoding="utf-8"?>
<!-- Generator: Adobe Illustrator 18.0.0, SVG Export Plug-In . SVG Version: 6.00 Build 0)  -->
<!DOCTYPE svg PUBLIC "-//W3C//DTD SVG 1.1//EN" "http://www.w3.org/Graphics/SVG/1.1/DTD/svg11.dtd">
<svg version="1.1" id="Layer_1" xmlns="http://www.w3.org/2000/svg" xmlns:xlink="http://www.w3.org/1999/xlink" x="0px" y="0px"
	 viewBox="0 0 200 160" enable-background="new 0 0 200 160" xml:space="preserve">
<g>
	<path fill="#E8A885" d="M114.8,94.9c-0.8-0.2-1.8-0.1-2.6-0.4c-1.2-0.2-2.3-0.4-3.6-0.6c-1.4-0.2-2.7-0.5-4-0.7
		c-2.9-0.5-5.6-0.5-8.5-0.4c-2.7,0.2-7.1-1.3-9.7-0.5c-2.2,0.7-3,1.6-5.4,4v6.1c0,0-0.5,20.3,18,33.9c18.6,13.5,18.2-29.2,18.7-30.3
		c0.1-0.5,0.1-3.2,0.1-8.2C117.7,98,115.8,95.1,114.8,94.9z"/>
	<path fill="#E2AB8D" d="M82.7,81.9l-0.1,20.9c0,0-0.5,19.2,16.5,32.1s16.7-27.6,17.1-28.6c0.4-1.2,0-26.2,0-26.2L82.7,81.9z"/>
	<path fill="#E55555" d="M176.7,143c-0.7-6.4-3.5-15.7-14.7-21.7c-11.2-6-45.6-24.8-45.6-24.8s5.6,18.6-16.5,20.6v-0.1h-0.1
		c-0.5,0.1-0.8,0.2-1.1,0.2c-0.1,0-0.4,0-0.6-0.1C80,108.8,81.2,96.5,81.2,96.5s-34.3,18.8-45.6,24.8c-11.2,6-13.9,15.2-14.7,21.7
		c-1.3,10.9-0.8,17-0.8,17h77.6h2.3h77.7C177.6,160,178,153.8,176.7,143z"/>
	<path fill="#D9D9D9" d="M99.5,118.9c-5.7,0-11.1-2.2-15.1-6.2s-6.2-8.9-6.2-14.6l4.4-3.3c0,9.3,7.6,19.5,16.9,19.5
		s16.9-8.8,16.9-18l4.3,2.5c0,5.7-2.1,9.7-6.1,13.8C110.6,116.7,105.2,118.9,99.5,118.9z"/>
	<g>
		<path fill="#F0B289" d="M128,42.9h-1.9v-7c0-14.5-11.8-26.2-26.4-26.2S73.4,21.4,73.4,35.9v7h-1.9c-1.4,0-2.6,1.2-2.6,2.6v6.7
			c0,3.2,1.2,6.2,3.3,8.6l3.7,0.2v-0.4V61C76,63.3,76.7,85.9,93,94.4c8.6,4.4,1.8,4.6,11.9,0c17.9-7.8,18.8-33.4,18.8-33.4l1.3-0.2
			c2.1-2.3,5.7-5.5,5.7-8.6v-6.7C130.7,44.2,129.5,42.9,128,42.9z"/>
		<g>
			<path fill="#3D3131" d="M81.1,16.6c-1.1-2.5-2-5.5-0.1-7.6c1.4-1.6,4-2,6.2-2.2c8.2-0.7,16.5-0.1,24.5-0.4
				c8.2-0.4,16.7-0.7,23.1-5c-2.3,7-6.3,12.4-11.6,18.1c-2.1,2.2-4.4,4.4-7.5,6c-4.2,2.1-9.3,2.7-14.4,2.6
				c-7.9-0.1-16.4-2.1-21.7-7.2"/>
		</g>
		<g>
			<path fill="#3D3131" d="M121.4,19.5c2.2-3.7,3.9-3.3,7-1.5c0.6,0.4,1.2,0.7,1.4,1.3c0.2,0.5,0.2,1.2,0.1,1.8
				c-0.8,7.5-1.4,16.1-3.5,22c0.2-4.1-6-16.5-9.2-19.3"/>
		</g>
		<g>
			<path fill="#3D3131" d="M81.1,15.3c-1.4-1.2-2-0.7-3.7-0.7c-2-0.1-3.3,1.1-4.4,2.2c-1.6,1.5-2,2.6-1.8,4.9
				c1.1,8.3,1.1,14.5,2,22.9c2.1-8.1,4.2-14.7,8.5-22"/>
		</g>
	</g>
	<path fill="#3D3131" d="M98.5,68.6c0,0-8.3,1.6-9.5,2.1c-0.7,0.4-3.4,2.1-3.4,2.1c0,0.1,3.3-0.5,4.2-0.8c2-0.7,8.2-0.4,8.6-0.6
		C99.1,70.9,98.5,68.6,98.5,68.6z"/>
	<path fill="#3D3131" d="M99.9,68.6c0,0,8.3,1.6,9.5,2.1c0.7,0.4,3.3,2.3,3.3,2.3c0,0.1-3.2-0.6-4-1.1c-2-0.7-8.2-0.4-8.6-0.6
		C99.4,70.9,99.9,68.6,99.9,68.6z"/>
	<path fill="#3D3131" d="M101.7,80.1c0.1,0.4-1.9,4.2-2.3,4.2c-0.6,0-2.7-3.9-2.3-4.2C97.2,79.8,101.6,79.9,101.7,80.1z"/>
	<path fill="#3D3131" d="M118.9,78.7c-0.6,0.4-3.3,4.6-4.2,5.5c-1.9,3.2-3.7,3.2-6,3.9c-3.6,1.3-11.4,1.3-15.2,0.6
		c-4.2-0.6-10-5.3-12.6-9.6c-0.2-0.5-1.5-2.7-1.8-2.9c-1.1-0.2,1.1,3.4,1.2,3.7c0.8,2.9,4,7.7,5.1,10.5c0.7,2.1,6.1,8.5,7.2,9.3
		c0.8,0.6,1.6,1.2,2.6,1.4c1.5,0.2,8.6-0.7,8.6-0.7C114.6,94.7,120.3,78.4,118.9,78.7z"/>
	<path fill="#3D3131" d="M98.6,106.2c-0.5-0.1-1.4-0.5-1.8-0.8c-0.2-0.2-0.4-0.5-0.6-0.6c-0.4-0.4-0.6-1.2-0.6-1.6
		c0-0.2,0-0.5,0-0.8c0-0.5,0-1.2,0.8-1.6c0.2-0.2,0.5-0.4,0.6-0.6c0.4-0.4,1.3-0.7,1.8-0.7c0.2,0,0.6,0,0.8,0c0.5,0,1.4,0.4,1.8,0.7
		c0.2,0.2,0.4,0.5,0.6,0.6c0.4,0.4,0.6,1.3,0.6,1.9c0,0.4,0,0.6,0,1.1c0,0.6,0,1.2-0.6,1.8c-0.2,0.2-0.6,0.5-0.8,0.6
		c-0.4,0.4-1.3,0.6-1.8,0.5C99.3,106.3,99.1,106.3,98.6,106.2z"/>
	<path fill="#3D3131" d="M101.9,110.4c-0.1,0.4-0.6,1.1-1.1,1.2c-0.2,0.1-0.4,0.2-0.6,0.4c-0.4,0.2-1.1,0.4-1.4,0.2
		c-0.2,0-0.4-0.1-0.6-0.1c-0.4-0.1-0.8-0.2-1.2-0.8c-0.1-0.2-0.2-0.4-0.4-0.6c-0.2-0.4-0.4-1.1-0.2-1.5c0-0.2,0.1-0.5,0.1-0.7
		c0.1-0.4,0.5-1.1,0.8-1.2c0.2-0.1,0.4-0.2,0.6-0.4c0.4-0.2,1.2-0.2,1.5-0.1c0.2,0.1,0.5,0.1,0.7,0.2c0.5,0.1,0.8,0.2,1.3,0.7
		c0.1,0.2,0.2,0.5,0.4,0.7c0.2,0.4,0.2,1.1,0.1,1.5C102,110,101.9,110.2,101.9,110.4z"/>
	<path fill="#3D3131" d="M97.3,116.3c-0.2-0.4-0.4-1.1-0.4-1.4c0-0.2,0-0.4,0-0.6c0-0.4,0.2-0.8,0.5-1.2c0.1-0.1,0.2-0.2,0.5-0.4
		c0.2-0.2,0.6-0.6,1.3-0.4c0.2,0,0.4,0,0.6,0c0.4,0,1.1,0.2,1.3,0.5c0.1,0.1,0.4,0.2,0.5,0.5c0.2,0.2,0.5,0.8,0.5,1.3
		c0,0.2,0,0.4,0,0.6c0,0.4-0.4,1.1-0.6,1.3c-0.1,0.1-0.4,0.4-0.5,0.5c-0.4,0.2-0.6,0.6-1.3,0.5c-0.2,0-0.5-0.1-0.7-0.1
		c-0.4,0-0.8-0.4-1.2-0.6C97.5,116.7,97.4,116.6,97.3,116.3z"/>
	<path fill="#3D3131" d="M99.1,122.4c-0.2,0-0.7-0.4-1.1-0.6c-0.1-0.1-0.2-0.2-0.4-0.4c-0.2-0.2-0.5-0.6-0.5-0.8c0-0.1,0-0.5,0-0.6
		c0-0.2,0.1-0.6,0.6-0.8c0.1-0.1,0.2-0.2,0.4-0.4c0.2-0.2,0.7-0.5,1.1-0.5c0.1,0,0.4,0,0.5,0c0.2,0,0.7,0.2,1.1,0.5
		c0.1,0.1,0.2,0.2,0.4,0.4c0.2,0.2,0.5,1.1,0.5,1.3c0,0.1,0,0.4,0,0.5c0,0.4-0.1,0.6-0.5,1.1c-0.2,0.1-0.4,0.2-0.5,0.5
		c-0.2,0.2-0.7,0.4-1.1,0.4C99.3,122.4,99.2,122.4,99.1,122.4z"/>
	<path fill="#3D3131" d="M100.6,107.2c-0.8,0-1.8,0.1-2.6,0.1c0-0.2,0-1.1,0-1.4c0.8,0,1.8,0,2.6-0.1
		C100.6,106.2,100.6,106.8,100.6,107.2z"/>
	<path fill="#3D3131" d="M100.1,113.1c-0.6,0-1.2,0.1-1.8,0.1c0-0.4,0-1.3,0-1.6c0.6,0,1.2,0,1.8-0.1
		C100.1,111.8,100.1,112.6,100.1,113.1z"/>
	<path fill="#3D3131" d="M100.1,118.2c-0.6,0-1.2,0.1-1.8,0.1c0-0.2,0-0.8,0-1.2c0.6,0,1.2,0,1.8-0.1
		C100.1,117.4,100.1,118,100.1,118.2z"/>
	<path fill="#3D3131" d="M99.9,122.9c0.2,0,0.7,0.2,1.1,0.5c0.1,0.1,0.2,0.2,0.4,0.4c0.2,0.2,0.4,0.8,0.4,1.2c0,0.1,0,0.2,0,0.5
		c0,0.2-0.1,0.5-0.5,0.8c-0.1,0.1-0.2,0.2-0.4,0.4c-0.2,0.2-0.7,0.4-1.1,0.4c-0.1,0-0.4,0-0.5,0c-0.2,0-0.7-0.1-1.1-0.4
		c-0.1-0.1-0.2-0.2-0.4-0.4c-0.2-0.2-0.4-0.7-0.4-1.1c0-0.1,0-0.4,0-0.5c0-0.4,0.1-0.8,0.5-1.2c0.1-0.1,0.4-0.2,0.5-0.4
		c0.2-0.2,0.6-0.4,1.1-0.2C99.5,122.8,99.6,122.9,99.9,122.9z"/>
	<path fill="#3D3131" d="M99.3,130.5c-0.2,0-0.6-0.1-0.8-0.2c-0.1-0.1-0.2-0.1-0.4-0.2c-0.2-0.1-0.4-0.5-0.5-0.7c0-0.1,0-0.2,0-0.4
		c0-0.2-0.1-0.5,0.2-0.8c0.1-0.1,0.1-0.2,0.2-0.4c0.1-0.2,0.5-0.5,0.7-0.5c0.1,0,0.2-0.1,0.4-0.1c0.2,0,0.6,0,0.8,0.1
		c0.1,0.1,0.2,0.1,0.4,0.2c0.2,0.1,0.4,0.5,0.5,0.7c0,0.1,0,0.2,0.1,0.5c0,0.2,0.1,0.5-0.1,0.8c-0.1,0.1-0.2,0.2-0.4,0.4
		c-0.1,0.2-0.5,0.4-0.7,0.4C99.5,130.5,99.4,130.5,99.3,130.5z"/>
	<path fill="#3D3131" d="M100.1,123c-0.5,0-1.2,0.1-1.6,0c0-0.2,0-0.7,0-0.8c0.5,0,1.2,0,1.6,0C100.1,122.3,100.1,122.8,100.1,123z"
		/>
	<path fill="#3D3131" d="M100,127.3c-0.5,0-1.1,0.1-1.5,0.1c0-0.2,0-1.1,0-1.3c0.5,0,1.1,0,1.5-0.1C100,126.4,100,127,100,127.3z"/>
	<path fill="#3D3131" d="M98.8,130.7c-0.5,1.5-0.9,2.2-0.5,3.9c0.5,1.3,0.6,3,1.1,3c0.2,0,1.4-4.2,0.2-6.8c0.2-0.5,0.6-1.2,0.6-1.6
		h-1.9C98.5,129.8,98.6,130.4,98.8,130.7z"/>
	<path fill="#3D3131" d="M76.2,61c-0.2,2.1,0.5,6.8,0.8,8.9c0.2,1.3,0.7,4,1.8,6.4c0.6,1.6,1.2,2.3,1.9,3.4l-2.2-8.8L76.2,61z"/>
	<path fill="#3D3131" d="M123.5,61c0.2,2.1-0.5,6.8-0.8,8.9c-0.2,1.3-0.4,4.1-1.8,6.4c-1.5,2.5-1.6,4.3-2.7,4l3.2-9.5L123.5,61z"/>
</g>
</svg>
