<?xml version="1.0" encoding="utf-8"?>
<!-- Generator: Adobe Illustrator 18.0.0, SVG Export Plug-In . SVG Version: 6.00 Build 0)  -->
<!DOCTYPE svg PUBLIC "-//W3C//DTD SVG 1.1//EN" "http://www.w3.org/Graphics/SVG/1.1/DTD/svg11.dtd">
<svg version="1.1" id="Layer_1" xmlns="http://www.w3.org/2000/svg" xmlns:xlink="http://www.w3.org/1999/xlink" x="0px" y="0px"
	 viewBox="0 0 200 160" enable-background="new 0 0 200 160" xml:space="preserve">
<path fill-rule="evenodd" clip-rule="evenodd" fill="#EFB087" d="M128.195,42.44h-1.84v-7.784c0-12.965-11.756-23.475-26.259-23.475
	c-14.502,0-26.259,10.51-26.259,23.475v7.784h-1.873c-1.424,0-2.579,1.032-2.579,2.306v5.874c0,2.837,1.13,5.582,3.188,7.742
	l1.232,1.294l0.033-0.337v0.337c0.138,0.036,3.467,20.428,19.439,27.937c3.783,1.773,6.493,2.165,11.936,0
	c17.696-7.041,21.143-27.937,21.143-27.937l1.232-1.294c2.058-2.161,3.187-4.905,3.187-7.742v-5.874
	C130.774,43.472,129.62,42.44,128.195,42.44"/>
<path fill="#EFB087" d="M120.877,70.008c0,0-0.78,7.669,1.036,17.591c0,0-5.175,18.486-31.552,12.178c0,0-8.599-1.243-11.506-8.939
	c0,0,0.676-11.665,0.389-16.91C78.946,68.687,120.877,70.008,120.877,70.008"/>
<g>
	<defs>
		<path id="SVGID_1_" d="M126.916,45.467h-1.84v-7.784c0-12.965-11.756-23.475-26.259-23.475c-14.502,0-26.259,10.51-26.259,23.475
			v7.784h-1.873c-1.424,0-2.579,1.032-2.579,2.306v5.874c0,2.837,1.13,5.582,3.188,7.742l1.232,1.294l0.033-0.337v0.337
			c0.138,0.036,3.467,20.428,19.439,27.937c3.783,1.773,6.493,2.165,11.936,0c17.696-7.041,21.143-27.937,21.143-27.937l1.232-1.294
			c2.058-2.161,3.187-4.905,3.187-7.742v-5.874C129.495,46.499,128.341,45.467,126.916,45.467"/>
	</defs>
	<clipPath id="SVGID_2_">
		<use xlink:href="#SVGID_1_"  overflow="visible"/>
	</clipPath>
</g>
<path fill-rule="evenodd" clip-rule="evenodd" fill="#515151" d="M111.322,76.888c0-2.336-0.057-6.097-2.298-6.899
	c-1.685-0.604-5.76-2.769-9.055-2.838c-3.038-0.063-7.413,2.198-9.102,2.736c-2.148,0.684-2.246,4.338-2.246,7.001
	c-8.719-4.218-11.391-8.65-15.369-20.158c2.232,12.746,9.95,32.735,26.426,32.627c17.981-0.119,24.673-18.158,27.119-32.469
	C122.726,68.896,118.341,75.12,111.322,76.888"/>
<path fill-rule="evenodd" clip-rule="evenodd" fill="#211912" d="M73.671,42.582c1.95-6.832,2.36-17.631,6.659-18.581
	c4.299-0.951,12.482,2.769,19.174,2.882c6.691,0.113,15.12-2.676,18.994-2.569c3.874,0.107,7.981,15.264,7.691,18.77
	c1.671-8.184,1.43-15.812,0.282-20.773h0.006c-1.199-7.714-7.406-9.841-13.929-11.661c-1.806-0.566-3.689-1.002-5.606-1.318
	c-0.562-0.356-5.455-3.565-5.455-7.249c0,0-3.906,1.776-3.906,4.971c-1.057,0.105-1.577-0.184-1.776-0.708
	c-0.465,0.353-0.79,0.78-0.711,1.419c-5.414-0.461-0.225-6.002-5.066-0.723c-6.744,2.725-14.878,5.559-16.356,14.823h0
	C72.196,28.352,72.781,35.552,73.671,42.582"/>
<path fill-rule="evenodd" clip-rule="evenodd" fill="#EFB087" d="M99.381,71.515c3.594,0,7.805,0.043,9.063,1.229
	c1.257,1.185,0.418,7.134-0.369,8.595c-1.319,2.448-4.767,3.717-8.216,3.767c-3.495,0.051-6.996-1.146-8.291-3.627
	c-0.768-1.471-1.589-7.701-0.36-8.862C92.436,71.457,95.666,71.515,99.381,71.515"/>
<path fill-rule="evenodd" clip-rule="evenodd" fill="#515151" d="M95.774,77.828h6.641c0.988,0-0.902,1.726-1.974,3.971
	c-0.94,1.97,6.133,4.5-1.338,4.503c-7.427,0.076-0.447-2.614-1.41-4.637C96.643,79.459,94.794,77.828,95.774,77.828"/>
<path fill="#EAEAEA" d="M176.666,160c-2.05-36.268-4.396-51.316-11.957-59c-9.316-9.467-39.57-10.94-43.918-20.361
	c-4.397,25.536-37.083,25.611-41.479,0.074C74.964,90.134,44.661,91.533,35.345,101c-7.561,7.684-9.937,22.732-11.986,59h75.736
	h1.242H176.666z"/>
<path d="M120.791,80.639c0,0,3.105,5.609,14.555,8.612c11.155,2.925,22.769,6.89,27.254,9.973
	c4.485,3.083,7.127,10.276,8.291,15.351h-0.993c0,0-2.05-10.492-7.935-14.359c-6.071-3.99-11.145-5.699-27.195-10.243
	c0,0-10.82-3.246-14.24-7.997L120.791,80.639z"/>
<path d="M120.201,83.236c0,0,2.867,5.18,13.442,7.953c10.301,2.702,21.027,6.363,25.169,9.21c4.142,2.848,6.582,9.49,7.657,14.176
	h-0.917c0,0-1.894-9.689-7.328-13.261c-5.607-3.685-10.292-5.263-25.114-9.459c0,0-10.088-2.992-13.246-7.379L120.201,83.236z"/>
<path d="M119.339,85.9c0,0,2.619,4.732,12.279,7.265c9.41,2.468,19.207,5.812,22.991,8.413c3.784,2.601,6.013,8.669,6.994,12.95
	h-0.837c0,0-1.73-8.851-6.694-12.113c-5.122-3.366-9.402-4.807-22.941-8.641c0,0-9.28-2.87-12.165-6.878L119.339,85.9z"/>
<path d="M79.176,80.639c0,0-3.105,5.609-14.555,8.612c-11.155,2.925-22.769,6.89-27.254,9.973
	c-4.485,3.083-7.127,10.276-8.291,15.351h0.993c0,0,2.05-10.492,7.935-14.359c6.071-3.99,11.145-5.699,27.195-10.243
	c0,0,10.82-3.246,14.24-7.997L79.176,80.639z"/>
<path d="M79.765,83.236c0,0-2.867,5.18-13.442,7.953c-10.301,2.702-21.027,6.363-25.169,9.21s-6.582,9.49-7.657,14.176h0.917
	c0,0,1.894-9.689,7.328-13.261c5.607-3.685,10.292-5.263,25.114-9.459c0,0,10.088-2.992,13.246-7.379L79.765,83.236z"/>
<path d="M80.628,85.9c0,0-2.619,4.732-12.279,7.265c-9.41,2.468-19.207,5.812-22.991,8.413c-3.784,2.601-6.013,8.669-6.994,12.95
	h0.837c0,0,1.73-8.851,6.694-12.113c5.122-3.366,9.402-4.807,22.941-8.641c0,0,9.28-2.87,12.165-6.878L80.628,85.9z"/>
<polygon points="49.554,103.401 99.662,119.038 151.12,103.401 151.12,113.009 99.662,128.646 49.554,113.009 "/>
<polygon fill="#98222B" points="49.554,105.006 99.662,120.642 151.12,105.006 151.12,114.613 99.662,130.25 49.554,114.613 "/>
<polygon fill="#FF3424" points="49.554,124.033 99.662,139.67 151.12,124.033 151.12,134.018 99.662,149.277 49.554,133.453 "/>
<path d="M78.855,81.533c0,0,0.712,12.479,19.946,21.279v-3.907c0,0-13.415-1.227-19.601-19.518L78.855,81.533z"/>
<path d="M121.449,81.556c0,0-2.117,14.524-22.649,21.257v-3.907c0,0,15.351-2.045,21.991-18.266L121.449,81.556z"/>
<polygon fill="#E43B3C" points="49.554,114.613 99.662,130.25 151.12,114.613 151.12,124.598 99.662,139.67 49.554,124.033 "/>
<g>
	<path d="M115.37,140.862c-0.034-8.217,6.682-15.137,15.156-15.127c8.305,0.01,15.128,6.709,15.128,15.14
		c0,8.46-6.875,15.17-15.202,15.141C122.039,155.986,115.325,149.096,115.37,140.862z"/>
	<path fill="#FFFFFF" d="M130.228,126.222c7.178,0.001,13.169,4.798,14.599,11.538c0.911,4.295,0.038,8.25-2.529,11.822
		c-0.097,0.135-0.166,0.165-0.318,0.077c-0.286-0.166-0.582-0.316-0.883-0.451c-0.162-0.072-0.137-0.125-0.048-0.241
		c1.109-1.435,1.889-3.031,2.344-4.786c1.252-4.841-0.346-10.016-4.113-13.302c-1.998-1.743-4.31-2.83-6.938-3.168
		c-3.935-0.507-7.455,0.508-10.487,3.081c-2.231,1.893-3.692,4.289-4.308,7.148c-0.866,4.019-0.056,7.7,2.408,11.005
		c0.135,0.181,0.137,0.18-0.066,0.284c-0.294,0.152-0.593,0.295-0.881,0.457c-0.119,0.067-0.173,0.044-0.249-0.059
		c-1.179-1.591-2.038-3.338-2.479-5.269c-1.043-4.564-0.188-8.752,2.666-12.47c2.163-2.818,5.03-4.584,8.507-5.344
		C128.464,126.323,129.487,126.229,130.228,126.222z"/>
	<path fill="#989898" d="M142.388,140.89c0.023,6.434-5.231,11.89-11.922,11.867c-6.641-0.023-11.859-5.451-11.844-11.914
		c0.015-6.44,5.271-11.925,12.038-11.847C137.222,129.072,142.421,134.456,142.388,140.89z"/>
	<path fill="#FFFFFF" d="M126.522,123.418c-0.054,0.036-0.105,0.069-0.154,0.105c-0.511,0.371-1.021,0.744-1.533,1.113
		c-0.05,0.036-0.101,0.119-0.171,0.062c-0.058-0.047,0.003-0.115,0.02-0.168c0.196-0.606,0.393-1.211,0.599-1.813
		c0.045-0.133,0.022-0.201-0.094-0.282c-0.513-0.358-1.018-0.726-1.524-1.094c-0.056-0.041-0.163-0.065-0.141-0.148
		c0.024-0.088,0.127-0.047,0.196-0.047c0.632-0.004,1.264-0.008,1.895-0.003c0.129,0.001,0.191-0.032,0.231-0.163
		c0.188-0.608,0.387-1.213,0.584-1.818c0.02-0.06,0.013-0.159,0.097-0.155c0.078,0.004,0.073,0.102,0.092,0.163
		c0.197,0.605,0.396,1.21,0.584,1.818c0.038,0.122,0.091,0.157,0.216,0.156c0.644-0.007,1.288-0.003,1.932-0.001
		c0.058,0,0.139-0.028,0.166,0.042c0.029,0.076-0.058,0.097-0.104,0.13c-0.514,0.377-1.027,0.757-1.549,1.122
		c-0.128,0.09-0.134,0.165-0.088,0.3c0.204,0.597,0.398,1.197,0.59,1.797c0.018,0.056,0.089,0.129,0.011,0.18
		c-0.062,0.04-0.11-0.034-0.156-0.067c-0.527-0.381-1.052-0.763-1.578-1.145C126.608,123.473,126.567,123.448,126.522,123.418z"/>
	<path fill="#FFFFFF" d="M132.725,121.14c0.307,0,0.614-0.011,0.92,0.005c0.163,0.008,0.219-0.056,0.263-0.199
		c0.18-0.585,0.371-1.167,0.563-1.748c0.022-0.068,0.01-0.188,0.111-0.186c0.085,0.002,0.076,0.114,0.098,0.179
		c0.194,0.594,0.386,1.188,0.57,1.785c0.039,0.127,0.092,0.171,0.228,0.17c0.644-0.006,1.288,0.001,1.933,0.004
		c0.06,0,0.142-0.021,0.166,0.044c0.027,0.074-0.062,0.094-0.108,0.127c-0.522,0.377-1.044,0.754-1.571,1.124
		c-0.109,0.076-0.13,0.142-0.087,0.268c0.205,0.603,0.401,1.209,0.594,1.816c0.018,0.056,0.092,0.131,0.013,0.18
		c-0.068,0.042-0.121-0.037-0.173-0.074c-0.506-0.368-1.013-0.734-1.514-1.109c-0.113-0.085-0.187-0.103-0.313-0.008
		c-0.503,0.382-1.017,0.749-1.529,1.119c-0.051,0.037-0.105,0.117-0.173,0.066c-0.057-0.043-0.002-0.114,0.016-0.17
		c0.196-0.612,0.391-1.225,0.596-1.834c0.038-0.114,0.018-0.175-0.077-0.243c-0.523-0.376-1.042-0.756-1.561-1.137
		c-0.047-0.035-0.133-0.06-0.116-0.127c0.022-0.086,0.114-0.048,0.176-0.048C132.074,121.138,132.399,121.14,132.725,121.14z"/>
	<path fill="#FFFFFF" d="M116.778,123.997c0.319,0,0.638-0.005,0.957,0.003c0.117,0.003,0.17-0.032,0.207-0.147
		c0.19-0.594,0.389-1.186,0.59-1.777c0.025-0.075,0.015-0.205,0.119-0.202c0.086,0.002,0.077,0.124,0.099,0.196
		c0.188,0.595,0.377,1.19,0.557,1.788c0.037,0.122,0.093,0.157,0.219,0.156c0.644-0.007,1.288-0.004,1.932-0.002
		c0.057,0,0.138-0.029,0.16,0.049c0.021,0.075-0.062,0.096-0.109,0.129c-0.526,0.381-1.053,0.762-1.583,1.137
		c-0.09,0.064-0.109,0.119-0.073,0.225c0.2,0.604,0.392,1.211,0.583,1.818c0.02,0.065,0.092,0.153,0.022,0.202
		c-0.079,0.056-0.139-0.046-0.198-0.089c-0.509-0.373-1.017-0.748-1.521-1.128c-0.089-0.067-0.146-0.07-0.237-0.002
		c-0.523,0.385-1.051,0.763-1.58,1.141c-0.046,0.033-0.094,0.109-0.156,0.068c-0.079-0.051-0.009-0.125,0.009-0.181
		c0.198-0.605,0.397-1.209,0.607-1.81c0.044-0.126,0.023-0.195-0.084-0.271c-0.522-0.376-1.039-0.759-1.557-1.141
		c-0.047-0.035-0.132-0.058-0.112-0.128c0.025-0.085,0.115-0.048,0.176-0.048c0.325-0.003,0.65-0.002,0.975-0.002
		C116.778,123.986,116.778,123.992,116.778,123.997z"/>
	<path fill="#FFFFFF" d="M140.342,124.009c0.319,0,0.638-0.007,0.957,0.003c0.127,0.004,0.182-0.036,0.219-0.157
		c0.189-0.608,0.385-1.213,0.584-1.818c0.021-0.063,0.009-0.173,0.106-0.169c0.079,0.003,0.073,0.103,0.092,0.163
		c0.194,0.593,0.388,1.187,0.571,1.784c0.044,0.143,0.102,0.201,0.263,0.198c0.631-0.012,1.263-0.007,1.895-0.004
		c0.061,0,0.153-0.041,0.177,0.045c0.022,0.082-0.075,0.101-0.126,0.137c-0.516,0.375-1.031,0.75-1.553,1.116
		c-0.116,0.082-0.131,0.153-0.086,0.286c0.208,0.608,0.403,1.22,0.602,1.831c0.016,0.05,0.064,0.11,0.012,0.153
		c-0.065,0.053-0.111-0.023-0.155-0.056c-0.525-0.383-1.05-0.765-1.57-1.155c-0.101-0.076-0.166-0.079-0.269-0.003
		c-0.508,0.375-1.022,0.741-1.536,1.108c-0.057,0.041-0.121,0.135-0.185,0.089c-0.077-0.056,0-0.148,0.023-0.218
		c0.196-0.599,0.393-1.198,0.6-1.793c0.04-0.116,0.016-0.173-0.078-0.24c-0.53-0.376-1.056-0.758-1.581-1.139
		c-0.045-0.033-0.13-0.053-0.102-0.13c0.023-0.064,0.097-0.034,0.149-0.035c0.331-0.002,0.662-0.001,0.993-0.001
		C140.342,124.004,140.342,124.007,140.342,124.009z"/>
	<path fill="#D91217" d="M130.508,155.524c-1.312-0.009-2.601-0.182-3.868-0.525c-0.12-0.033-0.159-0.062-0.104-0.194
		c0.136-0.327,0.258-0.661,0.377-0.995c0.036-0.1,0.072-0.124,0.183-0.095c1.234,0.324,2.489,0.482,3.766,0.445
		c0.996-0.029,1.979-0.159,2.941-0.416c0.183-0.049,0.265-0.027,0.325,0.164c0.096,0.309,0.219,0.61,0.343,0.91
		c0.048,0.116,0.026,0.151-0.094,0.184C133.109,155.344,131.82,155.516,130.508,155.524z"/>
	<path fill="#FFCA00" d="M141.306,150.773c-0.031,0.034-0.063,0.07-0.096,0.106c-0.985,1.056-2.104,1.944-3.353,2.668
		c-0.646,0.375-1.319,0.694-2.013,0.973c-0.132,0.053-0.186,0.028-0.246-0.096c-0.151-0.314-0.312-0.624-0.482-0.928
		c-0.064-0.115-0.035-0.144,0.077-0.186c1.375-0.517,2.629-1.245,3.763-2.179c0.365-0.3,0.714-0.618,1.04-0.959
		c0.087-0.091,0.152-0.109,0.265-0.04c0.308,0.189,0.624,0.363,0.936,0.546C141.236,150.7,141.29,150.71,141.306,150.773z"/>
	<path fill="#5D5D5D" d="M119.695,150.75c0.381-0.22,0.753-0.431,1.12-0.651c0.104-0.062,0.143,0.011,0.196,0.064
		c0.565,0.583,1.182,1.104,1.844,1.573c0.903,0.639,1.871,1.159,2.906,1.548c0.148,0.056,0.184,0.098,0.098,0.25
		c-0.169,0.297-0.315,0.608-0.463,0.917c-0.044,0.093-0.081,0.122-0.189,0.081C123.187,153.762,121.102,152.336,119.695,150.75z"/>
	<path d="M119.176,140.866c-0.025-6.152,5.002-11.332,11.346-11.325c6.218,0.007,11.325,5.023,11.325,11.334
		c0,6.333-5.147,11.357-11.381,11.335C124.169,152.188,119.143,147.029,119.176,140.866z"/>
	<path fill="#989898" d="M122.304,140.892c-0.011-4.534,3.661-8.221,8.195-8.228c4.542-0.007,8.233,3.671,8.237,8.21
		c0.004,4.519-3.642,8.233-8.219,8.23C125.871,149.102,122.284,145.313,122.304,140.892z"/>
	<path fill="#FFFFFF" d="M135.358,149.296c0.309,0.032,0.46,0.155,0.529,0.419c0.06,0.231-0.024,0.439-0.269,0.588
		c-0.219,0.133-0.452,0.243-0.677,0.368c-0.062,0.034-0.092,0.027-0.126-0.038c-0.259-0.499-0.521-0.997-0.785-1.494
		c-0.037-0.069-0.025-0.102,0.047-0.137c0.22-0.107,0.432-0.229,0.652-0.334c0.191-0.092,0.383-0.093,0.543,0.067
		C135.433,148.894,135.477,149.079,135.358,149.296z"/>
	<path fill="#FFFFFF" d="M127.714,150.203c0.192,0.264,0.202,0.441,0.039,0.683c-0.136,0.202-0.341,0.268-0.637,0.182
		c-0.234-0.068-0.462-0.16-0.695-0.235c-0.071-0.023-0.079-0.058-0.057-0.121c0.186-0.53,0.372-1.061,0.556-1.593
		c0.027-0.079,0.071-0.083,0.14-0.057c0.223,0.083,0.45,0.156,0.672,0.244c0.195,0.077,0.331,0.208,0.329,0.438
		C128.059,149.979,127.962,150.107,127.714,150.203z"/>
	<path fill="#FFFFFF" d="M138.66,146.913c-0.3-0.242-0.598-0.488-0.903-0.724c-0.085-0.066-0.107-0.108-0.029-0.2
		c0.071-0.085,0.112-0.093,0.201-0.02c0.401,0.332,0.811,0.654,1.213,0.985c0.046,0.038,0.166,0.059,0.101,0.155
		c-0.052,0.076-0.092,0.176-0.238,0.155c-0.461-0.065-0.924-0.11-1.387-0.162c-0.036-0.004-0.073-0.001-0.131-0.001
		c0.317,0.254,0.623,0.498,0.927,0.743c0.075,0.06,0.179,0.094,0.064,0.233c-0.119,0.144-0.173,0.027-0.241-0.026
		c-0.394-0.312-0.786-0.626-1.175-0.943c-0.044-0.036-0.15-0.062-0.102-0.137c0.055-0.088,0.093-0.207,0.258-0.183
		c0.454,0.067,0.911,0.114,1.367,0.169C138.622,146.965,138.673,146.998,138.66,146.913z"/>
	<path fill="#FFFFFF" d="M137.263,135.326c-0.193-0.119-0.255-0.256-0.144-0.46c0.069-0.127,0.099-0.276,0.159-0.409
		c0.041-0.092,0.027-0.152-0.043-0.225c-0.202-0.21-0.198-0.214-0.416-0.011c-0.067,0.063-0.142,0.119-0.2,0.189
		c-0.095,0.115-0.164,0.096-0.254-0.01c-0.057-0.067-0.039-0.096,0.012-0.144c0.407-0.38,0.814-0.762,1.218-1.145
		c0.056-0.053,0.093-0.059,0.149,0.002c0.176,0.196,0.364,0.381,0.534,0.582c0.184,0.217,0.197,0.453,0.057,0.658
		c-0.167,0.245-0.41,0.334-0.685,0.231c-0.097-0.036-0.111,0.002-0.137,0.074C137.432,134.882,137.347,135.103,137.263,135.326z"/>
	<path fill="#FFFFFF" d="M124.31,134.356c0.001,0.305-0.128,0.515-0.307,0.702c-0.102,0.106-0.197,0.288-0.306,0.297
		c-0.102,0.008-0.221-0.166-0.328-0.264c-0.322-0.293-0.641-0.59-0.965-0.88c-0.075-0.067-0.09-0.11-0.009-0.182
		c0.078-0.068,0.142-0.153,0.212-0.229c0.531-0.579,1.268-0.471,1.62,0.238C124.283,134.149,124.316,134.266,124.31,134.356z"/>
	<path fill="#FFFFFF" d="M140.08,145.448c-0.001,0.33-0.196,0.586-0.326,0.867c-0.027,0.059-0.065,0.033-0.104,0.013
		c-0.506-0.258-1.012-0.517-1.52-0.773c-0.07-0.035-0.066-0.071-0.033-0.13c0.089-0.16,0.163-0.33,0.261-0.484
		c0.236-0.373,0.607-0.492,1.021-0.341C139.821,144.763,140.081,145.077,140.08,145.448z"/>
	<path fill="#FFFFFF" d="M134.166,130.915c-0.068,0.162-0.129,0.308-0.191,0.455c-0.091,0.215-0.091,0.214,0.131,0.308
		c0.158,0.067,0.317,0.13,0.471,0.205c0.083,0.041,0.115,0.016,0.146-0.06c0.068-0.17,0.151-0.335,0.212-0.508
		c0.036-0.101,0.088-0.083,0.15-0.046c0.057,0.034,0.171,0.024,0.114,0.154c-0.223,0.517-0.444,1.034-0.659,1.555
		c-0.05,0.121-0.109,0.051-0.169,0.028c-0.065-0.025-0.145-0.032-0.092-0.144c0.084-0.177,0.147-0.363,0.232-0.539
		c0.051-0.105,0.044-0.159-0.074-0.202c-0.189-0.069-0.377-0.145-0.558-0.234c-0.1-0.049-0.124-0.006-0.156,0.073
		c-0.075,0.187-0.163,0.37-0.233,0.559c-0.048,0.128-0.115,0.063-0.186,0.039c-0.08-0.027-0.119-0.055-0.075-0.155
		c0.22-0.505,0.431-1.013,0.647-1.52c0.019-0.045,0.025-0.123,0.108-0.078C134.047,130.838,134.136,130.84,134.166,130.915z"/>
	<path fill="#FFFFFF" d="M125.03,132.063c-0.212,0.154-0.423,0.31-0.639,0.46c-0.078,0.054-0.106,0.09-0.039,0.182
		c0.2,0.275,0.195,0.278,0.48,0.074c0.083-0.06,0.156-0.16,0.253,0.005c0.058,0.098,0.033,0.128-0.04,0.182
		c-0.106,0.078-0.288,0.134-0.292,0.248c-0.003,0.109,0.141,0.217,0.208,0.333c0.067,0.116,0.125,0.133,0.236,0.042
		c0.175-0.143,0.37-0.262,0.547-0.402c0.092-0.072,0.129-0.038,0.186,0.039c0.056,0.076,0.078,0.117-0.019,0.184
		c-0.283,0.193-0.559,0.396-0.834,0.601c-0.065,0.049-0.097,0.043-0.143-0.022c-0.324-0.453-0.649-0.906-0.979-1.354
		c-0.058-0.078-0.034-0.11,0.032-0.156c0.23-0.162,0.457-0.329,0.685-0.494C124.883,131.83,124.883,131.83,125.03,132.063z"/>
	<path fill="#FFFFFF" d="M137.559,148.728c-0.018,0.288-0.2,0.477-0.448,0.612c-0.236,0.128-0.472,0.09-0.67-0.074
		c-0.347-0.288-0.589-0.671-0.877-1.013c-0.085-0.1,0.059-0.106,0.092-0.157c0.036-0.056,0.086-0.074,0.143-0.001
		c0.166,0.213,0.338,0.42,0.51,0.628c0.074,0.089,0.148,0.181,0.234,0.258c0.193,0.174,0.38,0.178,0.561,0.026
		c0.187-0.158,0.226-0.361,0.072-0.57c-0.21-0.286-0.439-0.559-0.667-0.832c-0.073-0.087-0.103-0.135,0.006-0.227
		c0.113-0.095,0.15-0.033,0.212,0.043c0.207,0.258,0.42,0.512,0.626,0.771C137.472,148.344,137.554,148.514,137.559,148.728z"/>
	<path fill="#FFFFFF" d="M127.465,132.256c-0.01,0.304-0.172,0.494-0.434,0.609c-0.262,0.115-0.511,0.111-0.733-0.095
		c-0.096-0.089-0.168-0.196-0.222-0.313c-0.141-0.312-0.271-0.629-0.419-0.938c-0.054-0.112,0.004-0.136,0.081-0.172
		c0.076-0.035,0.134-0.065,0.181,0.049c0.13,0.316,0.269,0.63,0.414,0.94c0.084,0.179,0.208,0.326,0.433,0.31
		c0.303-0.021,0.483-0.268,0.379-0.555c-0.125-0.344-0.28-0.678-0.428-1.013c-0.039-0.088-0.064-0.141,0.057-0.19
		c0.109-0.045,0.157-0.04,0.203,0.075c0.123,0.3,0.258,0.595,0.388,0.891C127.424,131.984,127.458,132.119,127.465,132.256z"/>
	<path fill="#FFFFFF" d="M122.657,147.808c-0.384-0.001-0.569-0.181-0.706-0.419c-0.128-0.222-0.109-0.445,0.031-0.659
		c0.065-0.098,0.146-0.182,0.238-0.254c0.259-0.206,0.525-0.403,0.779-0.616c0.102-0.085,0.139-0.032,0.199,0.041
		c0.06,0.073,0.077,0.114-0.016,0.184c-0.28,0.209-0.553,0.426-0.821,0.65c-0.147,0.123-0.248,0.277-0.171,0.484
		c0.107,0.288,0.381,0.394,0.637,0.219c0.298-0.204,0.578-0.434,0.862-0.657c0.082-0.064,0.132-0.092,0.211,0.014
		c0.075,0.1,0.058,0.144-0.034,0.212c-0.256,0.19-0.503,0.391-0.757,0.584C122.951,147.711,122.783,147.812,122.657,147.808z"/>
	<path fill="#FFFFFF" d="M136.125,133.826c-0.047,0.065-0.085,0.129-0.133,0.183c-0.044,0.049-0.078-0.008-0.108-0.029
		c-0.282-0.194-0.562-0.394-0.845-0.587c-0.071-0.048-0.083-0.082-0.03-0.157c0.32-0.449,0.637-0.9,0.949-1.354
		c0.058-0.084,0.1-0.077,0.172-0.025c0.264,0.189,0.527,0.379,0.799,0.557c0.111,0.073,0.049,0.121,0.007,0.187
		c-0.044,0.068-0.075,0.114-0.166,0.044c-0.179-0.138-0.374-0.256-0.554-0.394c-0.091-0.07-0.133-0.061-0.197,0.033
		c-0.185,0.27-0.187,0.262,0.088,0.467c0.056,0.041,0.216,0.045,0.11,0.203c-0.078,0.117-0.128,0.121-0.237,0.04
		c-0.3-0.222-0.294-0.209-0.519,0.082c-0.119,0.154-0.106,0.231,0.062,0.325c0.181,0.102,0.344,0.234,0.514,0.354
		C136.066,133.776,136.092,133.8,136.125,133.826z"/>
	<path fill="#FFFFFF" d="M130.284,132.145c-0.194-0.01-0.388-0.058-0.549-0.196c-0.041-0.035-0.15-0.068-0.056-0.148
		c0.06-0.051,0.091-0.197,0.226-0.081c0.147,0.126,0.327,0.159,0.518,0.135c0.139-0.018,0.251-0.073,0.274-0.225
		c0.023-0.151-0.075-0.225-0.198-0.27c-0.172-0.063-0.35-0.111-0.519-0.181c-0.234-0.096-0.313-0.226-0.306-0.467
		c0.007-0.221,0.122-0.366,0.323-0.446c0.292-0.116,0.564-0.07,0.817,0.109c0.041,0.029,0.116,0.065,0.039,0.12
		c-0.061,0.043-0.076,0.202-0.205,0.105c-0.136-0.102-0.288-0.13-0.451-0.11c-0.119,0.014-0.211,0.063-0.232,0.195
		c-0.02,0.128,0.058,0.195,0.161,0.235c0.125,0.048,0.255,0.084,0.383,0.128c0.381,0.13,0.506,0.296,0.467,0.618
		c-0.035,0.284-0.239,0.445-0.604,0.477C130.346,132.143,130.321,132.144,130.284,132.145z"/>
	<path fill="#FFFFFF" d="M128.211,151.388c0.29-0.553,0.581-1.105,0.866-1.659c0.043-0.085,0.094-0.099,0.175-0.079
		c0.084,0.022,0.175,0.009,0.201,0.138c0.105,0.528,0.222,1.054,0.335,1.581c0.005,0.024,0.017,0.049,0.014,0.072
		c-0.008,0.061,0.095,0.161-0.021,0.174c-0.086,0.01-0.221,0.039-0.257-0.128c-0.081-0.366-0.088-0.365-0.466-0.415
		c-0.03-0.004-0.062-0.004-0.091-0.014c-0.189-0.064-0.317-0.01-0.373,0.187C128.533,151.462,128.394,151.473,128.211,151.388z"/>
	<path fill="#FFFFFF" d="M124.305,147.391c0.336,0.002,0.709,0.356,0.732,0.689c0.004,0.061-0.008,0.099-0.074,0.088
		c-0.076-0.012-0.19,0.082-0.216-0.079c-0.029-0.176-0.14-0.297-0.288-0.384c-0.09-0.054-0.186-0.063-0.273,0.011
		c-0.09,0.076-0.089,0.171-0.039,0.266c0.08,0.151,0.171,0.297,0.25,0.449c0.151,0.292,0.116,0.493-0.109,0.692
		c-0.19,0.167-0.427,0.169-0.678,0.009c-0.24-0.153-0.396-0.363-0.442-0.646c-0.009-0.056-0.032-0.14,0.069-0.129
		c0.075,0.008,0.192-0.083,0.216,0.079c0.03,0.199,0.133,0.352,0.302,0.462c0.116,0.076,0.233,0.114,0.353,0.008
		c0.123-0.109,0.086-0.23,0.021-0.35c-0.09-0.167-0.197-0.326-0.272-0.499C123.72,147.744,123.965,147.389,124.305,147.391z"/>
	<path fill="#FFFFFF" d="M125.468,150.302c-0.335-0.003-0.71-0.29-0.815-0.619c-0.02-0.062-0.047-0.127,0.049-0.136
		c0.075-0.007,0.172-0.115,0.223,0.042c0.065,0.199,0.207,0.33,0.398,0.406c0.121,0.048,0.242,0.051,0.332-0.068
		c0.086-0.114,0.049-0.222-0.027-0.319c-0.102-0.13-0.216-0.251-0.319-0.38c-0.178-0.225-0.189-0.411-0.045-0.621
		c0.131-0.191,0.356-0.261,0.605-0.18c0.245,0.08,0.428,0.235,0.526,0.478c0.017,0.042,0.099,0.119-0.017,0.141
		c-0.079,0.015-0.18,0.127-0.242-0.036c-0.055-0.145-0.166-0.241-0.304-0.304c-0.113-0.051-0.229-0.068-0.318,0.042
		c-0.086,0.106-0.04,0.209,0.032,0.301c0.118,0.149,0.248,0.288,0.359,0.442c0.116,0.161,0.137,0.339,0.034,0.518
		C125.837,150.19,125.691,150.31,125.468,150.302z"/>
	<path fill="#FFFFFF" d="M131.499,131.467c0.014-0.337,0.086-0.618,0.293-0.848c0.328-0.366,0.977-0.304,1.198,0.113
		c0.025,0.048,0.09,0.115-0.015,0.141c-0.076,0.019-0.146,0.132-0.239,0.014c-0.282-0.354-0.683-0.296-0.854,0.122
		c-0.082,0.201-0.121,0.41-0.075,0.628c0.072,0.345,0.435,0.513,0.719,0.306c0.153-0.111,0.199,0.005,0.257,0.076
		c0.076,0.093-0.043,0.122-0.09,0.156c-0.433,0.316-1.063,0.052-1.17-0.489C131.506,131.604,131.504,131.517,131.499,131.467z"/>
	<path fill="#FFFFFF" d="M122.237,144.85c-0.117,0.061-0.243,0.122-0.364,0.193c-0.041,0.024-0.006,0.067,0.009,0.097
		c0.04,0.083,0.076,0.168,0.128,0.243c0.086,0.125,0.044,0.185-0.083,0.239c-0.074,0.031-0.11,0.026-0.134-0.049
		c-0.004-0.011-0.012-0.021-0.018-0.032c-0.067-0.114-0.087-0.3-0.2-0.328c-0.095-0.024-0.226,0.095-0.34,0.151
		c-0.077,0.038-0.16,0.067-0.227,0.118c-0.133,0.099-0.191,0.048-0.248-0.085c-0.035-0.083-0.007-0.105,0.055-0.136
		c0.49-0.249,0.98-0.498,1.467-0.751c0.083-0.043,0.125-0.039,0.169,0.051c0.142,0.291,0.291,0.578,0.442,0.864
		c0.043,0.081,0.044,0.13-0.051,0.163c-0.072,0.024-0.139,0.105-0.199-0.029c-0.092-0.206-0.2-0.405-0.306-0.605
		C122.317,144.913,122.312,144.853,122.237,144.85z"/>
	<path fill="#FFFFFF" d="M127.682,130.691c-0.037-0.092,0.018-0.105,0.065-0.115c0.396-0.083,0.792-0.163,1.187-0.246
		c0.122-0.026,0.079,0.082,0.1,0.129c0.021,0.048,0.054,0.122-0.048,0.142c-0.108,0.02-0.215,0.053-0.324,0.065
		c-0.115,0.013-0.137,0.055-0.111,0.168c0.098,0.424,0.18,0.851,0.274,1.275c0.026,0.119,0.008,0.173-0.128,0.194
		c-0.114,0.017-0.132-0.03-0.149-0.116c-0.088-0.426-0.185-0.85-0.264-1.277c-0.024-0.13-0.064-0.168-0.188-0.126
		c-0.069,0.023-0.148,0.019-0.215,0.045C127.719,130.893,127.67,130.82,127.682,130.691z"/>
	<path fill="#FFFFFF" d="M133.581,151.111c0.025,0.069-0.028,0.08-0.076,0.091c-0.333,0.079-0.666,0.158-0.999,0.237
		c-0.065,0.015-0.096,0.004-0.113-0.071c-0.127-0.548-0.259-1.095-0.39-1.642c-0.032-0.133,0.076-0.104,0.143-0.132
		c0.105-0.044,0.125,0.014,0.143,0.095c0.097,0.423,0.204,0.844,0.293,1.269c0.03,0.144,0.078,0.176,0.219,0.13
		c0.186-0.06,0.38-0.092,0.57-0.137C133.534,150.914,133.575,150.944,133.581,151.111z"/>
	<path fill="#FFFFFF" d="M130.474,150.665c-0.014-0.263-0.023-0.526-0.044-0.788c-0.008-0.098,0.018-0.136,0.116-0.128
		c0.078,0.006,0.165-0.038,0.169,0.11c0.014,0.446,0.049,0.892,0.067,1.338c0.004,0.112,0.037,0.148,0.15,0.138
		c0.219-0.019,0.44-0.025,0.66-0.04c0.088-0.006,0.149-0.006,0.151,0.116c0.001,0.112-0.017,0.164-0.143,0.167
		c-0.318,0.008-0.636,0.026-0.953,0.048c-0.099,0.007-0.123-0.023-0.126-0.119C130.51,151.227,130.49,150.946,130.474,150.665z"/>
	<path fill="#FFFFFF" d="M133.95,150.1c0.007,0.068-0.048,0.069-0.083,0.082c-0.126,0.045-0.255,0.082-0.381,0.128
		c-0.087,0.032-0.153,0.075-0.203-0.064c-0.05-0.139,0.015-0.166,0.116-0.197c0.111-0.034,0.219-0.074,0.329-0.111
		C133.866,149.892,133.958,149.962,133.95,150.1z"/>
	<path fill="#9F9D9D" d="M138.66,146.913c0.032,0.008,0.07,0.042,0.053,0.057c-0.039,0.036-0.089,0.015-0.13-0.016
		C138.608,146.94,138.649,146.954,138.66,146.913z"/>
	<path d="M138.262,140.886c-0.005,4.282-3.488,7.771-7.76,7.75c-4.267-0.021-7.74-3.453-7.734-7.764
		c0.007-4.39,3.596-7.751,7.756-7.735C134.808,133.154,138.266,136.606,138.262,140.886z"/>
	<path d="M135.291,149.524c0.181,0.006,0.263,0.099,0.31,0.226c0.044,0.12,0.026,0.239-0.085,0.31
		c-0.153,0.098-0.318,0.178-0.477,0.266c-0.049,0.027-0.078,0.011-0.1-0.037c-0.018-0.039-0.045-0.073-0.06-0.113
		c-0.049-0.128-0.223-0.294-0.152-0.361C134.882,149.668,135.095,149.566,135.291,149.524z"/>
	<path d="M135.163,149.126c0.006,0.082-0.03,0.148-0.096,0.187c-0.142,0.084-0.289,0.159-0.434,0.239
		c-0.037,0.02-0.07,0.024-0.093-0.019c-0.057-0.108-0.112-0.217-0.17-0.325c-0.032-0.059,0.011-0.074,0.05-0.094
		c0.136-0.07,0.268-0.149,0.408-0.208C134.997,148.835,135.158,148.947,135.163,149.126z"/>
	<path d="M127.586,150.525c-0.007,0.232-0.168,0.356-0.392,0.299c-0.024-0.006-0.048-0.011-0.071-0.018
		c-0.483-0.154-0.498-0.192-0.28-0.659c0.03-0.063,0.059-0.084,0.124-0.059c0.148,0.056,0.298,0.105,0.444,0.166
		C127.527,150.302,127.593,150.392,127.586,150.525z"/>
	<path d="M127.777,149.737c-0.006,0.198-0.143,0.304-0.314,0.255c-0.141-0.04-0.277-0.095-0.416-0.142
		c-0.062-0.021-0.092-0.054-0.057-0.12c0.008-0.016,0.012-0.035,0.02-0.051c0.051-0.099,0.034-0.236,0.144-0.298
		c0.054-0.031,0.564,0.199,0.592,0.255C127.765,149.674,127.771,149.717,127.777,149.737z"/>
	<path d="M138.145,134.045c-0.014,0.133-0.083,0.219-0.191,0.279c-0.105,0.058-0.209,0.039-0.289-0.035
		c-0.134-0.124-0.255-0.263-0.384-0.393c-0.047-0.048-0.038-0.082,0.009-0.119c0.132-0.105,0.232-0.248,0.382-0.334
		c0.166,0.161,0.341,0.313,0.453,0.52C138.138,133.988,138.139,134.021,138.145,134.045z"/>
	<path d="M124.036,134.398c-0.007,0.242-0.16,0.402-0.316,0.561c-0.05,0.051-0.078,0-0.105-0.025
		c-0.281-0.256-0.561-0.513-0.841-0.771c-0.028-0.026-0.068-0.043-0.036-0.103c0.123-0.227,0.455-0.4,0.682-0.345
		C123.724,133.79,124.031,134.13,124.036,134.398z"/>
	<path d="M139.068,144.824c0.232,0.028,0.459,0.126,0.625,0.33c0.167,0.205,0.127,0.606-0.063,0.8
		c-0.04,0.041-0.062,0.017-0.091,0.003c-0.348-0.176-0.697-0.353-1.044-0.531c-0.03-0.015-0.06-0.027-0.051-0.081
		C138.491,145.088,138.792,144.822,139.068,144.824z"/>
	<path d="M128.83,150.783c0.136-0.272,0.26-0.52,0.396-0.794c0.055,0.276,0.104,0.525,0.155,0.774
		c0.014,0.07-0.002,0.102-0.082,0.089C129.15,150.827,129,150.808,128.83,150.783z"/>
	<path fill="#FFFFFF" d="M130.502,147.244c-0.241-0.298-0.315-0.651-0.378-1.008c-0.038-0.216-0.04-0.213-0.235-0.13
		c-0.183,0.078-0.369,0.15-0.598,0.168c0.16-0.366,0.286-0.722,0.415-1.076c0.203-0.558,0.277-1.128,0.192-1.718
		c-0.005-0.036-0.008-0.073-0.017-0.109c-0.05-0.211-0.12-0.238-0.282-0.088c-0.308,0.286-0.555,0.62-0.729,1.005
		c-0.053,0.117-0.105,0.233-0.164,0.362c-0.091-0.1-0.172-0.189-0.266-0.292c-0.094,0.17-0.185,0.327-0.269,0.488
		c-0.065,0.124-0.015,0.201,0.115,0.227c0.084,0.016,0.171,0.016,0.255,0.03c0.159,0.027,0.242,0.133,0.203,0.287
		c-0.024,0.098,0.005,0.155,0.062,0.229c0.167,0.217,0.099,0.418-0.155,0.487c-0.006-0.054,0-0.114-0.022-0.16
		c-0.042-0.089-0.088-0.176-0.222-0.105c-0.192,0.101-0.226,0.079-0.288-0.137c-0.019-0.064-0.041-0.129-0.071-0.188
		c-0.022-0.044-0.062-0.087-0.117-0.064c-0.05,0.021-0.065,0.074-0.052,0.126c0.035,0.137,0.078,0.271,0.154,0.391
		c0.04,0.063,0.074,0.129,0.08,0.203c0.007,0.08-0.016,0.152-0.112,0.159c-0.188,0.012-0.158,0.101-0.08,0.211
		c0.021,0.03,0.039,0.061,0.03,0.109c-0.165,0.002-0.283-0.065-0.417-0.174c-0.275-0.224-0.301-0.445-0.103-0.72
		c0.024-0.033,0.027-0.081,0.036-0.123c0.016-0.081,0.069-0.191-0.04-0.222c-0.1-0.028-0.132,0.087-0.164,0.164
		c-0.061,0.147-0.108,0.3-0.175,0.443c-0.092,0.198-0.208,0.235-0.391,0.126c-0.178-0.106-0.135,0.097-0.212,0.138
		c-0.08-0.031-0.153-0.084-0.158-0.177c-0.008-0.163-0.003-0.328,0.004-0.492c0.003-0.067,0.063-0.101,0.116-0.133
		c0.107-0.064,0.228-0.086,0.348-0.111c0.054-0.011,0.108-0.019,0.161-0.034c0.081-0.022,0.145-0.07,0.173-0.151
		c0.015-0.043-0.024-0.062-0.056-0.082c-0.085-0.051-0.15-0.017-0.215,0.04c-0.066,0.059-0.145,0.095-0.233,0.097
		c-0.091,0.002-0.176-0.02-0.184-0.133c-0.009-0.13-0.075-0.163-0.183-0.105c-0.114,0.06-0.111-0.015-0.107-0.086
		c0.008-0.151,0.106-0.223,0.238-0.269c0.059-0.02,0.125-0.013,0.169-0.089c0.098-0.171,0.242-0.202,0.432-0.112
		c0.138,0.066,0.273,0.137,0.412,0.202c0.127,0.059,0.231,0.052,0.307-0.092c0.066-0.124,0.147-0.24,0.231-0.354
		c0.093-0.127,0.045-0.176-0.087-0.211c-0.114-0.03-0.252,0.011-0.345-0.111c0.807-0.442,1.361-1.117,1.714-1.945
		c0.198-0.464,0.157-0.967,0.04-1.466c-0.02,0.053-0.043,0.104-0.059,0.158c-0.186,0.596-0.372,1.191-0.554,1.788
		c-0.042,0.138-0.105,0.261-0.2,0.368c-0.125,0.142-0.279,0.198-0.463,0.138c-0.187-0.061-0.299-0.213-0.31-0.413
		c-0.005-0.093,0.016-0.181,0.043-0.27c0.217-0.721,0.432-1.442,0.645-2.163c0.021-0.07,0.102-0.154-0.05-0.197
		c-0.123-0.035-0.165,0-0.205,0.114c-0.442,1.264-0.891,2.526-1.336,3.789c-0.039,0.11-0.08,0.219-0.153,0.311
		c-0.141,0.177-0.322,0.225-0.522,0.139c-0.198-0.085-0.298-0.257-0.268-0.473c0.012-0.084,0.039-0.167,0.067-0.247
		c0.444-1.27,0.891-2.539,1.333-3.81c0.02-0.058,0.108-0.137-0.028-0.191c-0.1-0.04-0.142-0.038-0.183,0.076
		c-0.288,0.8-0.584,1.597-0.877,2.395c-0.137,0.373-0.272,0.747-0.411,1.12c-0.028,0.074-0.06,0.148-0.102,0.215
		c-0.151,0.247-0.359,0.319-0.589,0.209c-0.237-0.113-0.327-0.333-0.232-0.602c0.226-0.64,0.457-1.278,0.687-1.917
		c0.222-0.616,0.445-1.231,0.667-1.846c0.045-0.126-0.035-0.259-0.165-0.268c-0.079-0.005-0.07,0.069-0.087,0.115
		c-0.243,0.64-0.485,1.281-0.728,1.921c-0.121,0.32-0.238,0.642-0.366,0.96c-0.096,0.238-0.291,0.346-0.506,0.299
		c-0.302-0.065-0.432-0.322-0.316-0.64c0.241-0.661,0.49-1.319,0.729-1.98c0.333-0.92,0.663-1.841,0.991-2.763
		c0.158-0.445,0.327-0.572,0.803-0.565c0.564,0.009,1.129-0.039,1.692,0.026c0.086,0.01,0.168,0.033,0.246,0.07
		c0.141,0.067,0.195,0.175,0.166,0.33c-0.041,0.217-0.161,0.396-0.278,0.575c-0.097,0.149-0.21,0.287-0.307,0.436
		c-0.101,0.154-0.074,0.23,0.098,0.29c0.168,0.058,0.343,0.089,0.52,0.11c0.3,0.037,0.538-0.077,0.727-0.307
		c0.196-0.238,0.288-0.524,0.37-0.812c0.044-0.155-0.053-0.215-0.188-0.222c-0.215-0.012-0.389-0.1-0.522-0.268
		c-0.108-0.137-0.082-0.205,0.092-0.227c0.103-0.013,0.209-0.006,0.312-0.018c0.093-0.01,0.197-0.001,0.277-0.125
		c-0.279-0.016-0.538-0.02-0.795,0.008c-0.22,0.025-0.441,0.031-0.661,0.019c-0.291-0.015-0.393-0.122-0.396-0.414
		c-0.001-0.095,0.011-0.19,0.018-0.303c0.037,0.025,0.057,0.031,0.064,0.043c0.178,0.361,0.512,0.411,0.857,0.412
		c0.299,0.001,0.584,0.052,0.866,0.141c0.043,0.013,0.108,0.092,0.154-0.001c0.04-0.081,0.022-0.157-0.048-0.215
		c-0.094-0.077-0.211-0.096-0.327-0.104c-0.27-0.02-0.541-0.031-0.804,0.048c-0.099,0.029-0.113,0-0.114-0.088
		c-0.001-0.161,0.017-0.319,0.081-0.468c0.067-0.154,0.177-0.292,0.347-0.296c0.52-0.012,1.013-0.168,1.52-0.244
		c0.183-0.028,0.368-0.017,0.549,0.02c0.206,0.043,0.392,0.122,0.446,0.353c0.018,0.076,0.062,0.08,0.12,0.079
		c0.1-0.001,0.196,0.02,0.287,0.056c0.189,0.074,0.299,0.208,0.297,0.419c-0.001,0.133,0,0.266,0,0.4
		c-0.094,0.005-0.141-0.05-0.195-0.086c-0.106-0.07-0.219-0.076-0.335-0.042c-0.084,0.025-0.129,0.07-0.111,0.176
		c0.072,0.442,0.123,0.887,0.202,1.327c0.102,0.57,0.557,0.868,1.12,0.751c0.126-0.026,0.252-0.053,0.374-0.091
		c0.136-0.042,0.17-0.137,0.092-0.256c-0.094-0.143-0.198-0.28-0.295-0.422c-0.11-0.162-0.218-0.326-0.28-0.515
		c-0.083-0.252-0.017-0.386,0.233-0.465c0.183-0.058,0.373-0.069,0.564-0.068c0.436,0.001,0.871,0.003,1.307,0.004
		c0.445,0.001,0.648,0.147,0.778,0.574c0.248,0.813,0.492,1.628,0.738,2.442c0.226,0.75,0.454,1.499,0.677,2.249
		c0.112,0.378-0.108,0.664-0.477,0.621c-0.218-0.025-0.323-0.179-0.383-0.373c-0.233-0.754-0.466-1.508-0.698-2.262
		c-0.065-0.21-0.125-0.422-0.197-0.631c-0.015-0.044-0.003-0.16-0.097-0.11c-0.076,0.04-0.224,0.05-0.173,0.21
		c0.066,0.204,0.128,0.408,0.191,0.613c0.334,1.081,0.668,2.163,1,3.244c0.102,0.33,0.005,0.562-0.269,0.664
		c-0.175,0.066-0.325,0.029-0.452-0.105c-0.095-0.099-0.152-0.219-0.192-0.351c-0.364-1.174-0.729-2.348-1.099-3.521
		c-0.017-0.055,0.02-0.179-0.122-0.142c-0.123,0.033-0.136,0.097-0.101,0.214c0.39,1.288,0.774,2.578,1.16,3.867
		c0.035,0.118,0.069,0.234,0.06,0.36c-0.014,0.196-0.123,0.314-0.298,0.38c-0.174,0.066-0.327,0.024-0.453-0.108
		c-0.09-0.094-0.142-0.211-0.18-0.337c-0.38-1.272-0.762-2.543-1.146-3.814c-0.023-0.076-0.013-0.2-0.165-0.152
		c-0.098,0.03-0.137,0.057-0.1,0.176c0.228,0.736,0.444,1.476,0.665,2.214c0.116,0.386,0.024,0.641-0.265,0.73
		c-0.264,0.081-0.527-0.107-0.64-0.466c-0.198-0.63-0.393-1.262-0.589-1.892c-0.012-0.039-0.029-0.077-0.06-0.155
		c-0.124,0.762-0.095,1.446,0.339,2.077c0.335,0.488,0.658,0.98,1.213,1.25c0.083,0.04,0.064,0.076-0.006,0.107
		c-0.086,0.039-0.181,0.031-0.27,0.049c-0.119,0.024-0.191,0.074-0.111,0.215c0.075,0.133,0.132,0.276,0.195,0.415
		c0.056,0.124,0.142,0.161,0.267,0.101c0.138-0.066,0.277-0.129,0.415-0.195c0.234-0.112,0.317-0.095,0.472,0.113
		c0.048,0.064,0.118,0.055,0.177,0.078c0.188,0.073,0.235,0.16,0.187,0.377c-0.145-0.078-0.245-0.08-0.279,0.125
		c-0.019,0.115-0.143,0.094-0.233,0.075c-0.079-0.016-0.141-0.071-0.206-0.118c-0.075-0.054-0.165-0.046-0.212,0.026
		c-0.054,0.083,0.028,0.137,0.091,0.169c0.064,0.032,0.139,0.044,0.21,0.059c0.114,0.025,0.229,0.044,0.334,0.098
		c0.188,0.097,0.234,0.649,0.066,0.778c-0.061,0.047-0.096,0.04-0.121-0.033c-0.033-0.095-0.076-0.122-0.175-0.058
		c-0.159,0.102-0.273,0.07-0.36-0.099c-0.067-0.13-0.111-0.271-0.166-0.407c-0.021-0.051-0.038-0.104-0.066-0.151
		c-0.031-0.05-0.071-0.116-0.141-0.086c-0.054,0.024-0.062,0.092-0.047,0.147c0.026,0.094,0.042,0.19,0.09,0.279
		c0.167,0.308,0.154,0.306-0.076,0.564c-0.134,0.15-0.262,0.269-0.477,0.245c-0.019-0.06,0.023-0.094,0.047-0.132
		c0.064-0.1,0.075-0.158-0.077-0.177c-0.171-0.021-0.159-0.146-0.104-0.264c0.066-0.144,0.154-0.279,0.188-0.436
		c0.014-0.064,0.048-0.148-0.036-0.177c-0.093-0.032-0.12,0.058-0.149,0.124c-0.015,0.033-0.024,0.069-0.034,0.105
		c-0.068,0.246-0.079,0.254-0.307,0.146c-0.126-0.059-0.169,0.027-0.206,0.109c-0.021,0.046-0.011,0.108-0.014,0.162
		c-0.261-0.054-0.335-0.255-0.165-0.482c0.057-0.076,0.075-0.142,0.063-0.234c-0.024-0.18,0.06-0.288,0.241-0.291
		c0.4-0.006,0.434-0.116,0.235-0.435c-0.058-0.093-0.108-0.19-0.173-0.306c-0.089,0.098-0.169,0.188-0.263,0.293
		c-0.053-0.114-0.104-0.216-0.149-0.32c-0.164-0.383-0.408-0.711-0.7-1.005c-0.064-0.064-0.136-0.155-0.23-0.127
		c-0.099,0.029-0.095,0.146-0.107,0.235c-0.068,0.51-0.057,1.013,0.104,1.509c0.144,0.442,0.296,0.88,0.495,1.328
		c-0.237-0.01-0.437-0.089-0.63-0.183c-0.125-0.061-0.176-0.042-0.197,0.096c-0.042,0.279-0.102,0.554-0.229,0.809
		C130.641,147.067,130.593,147.166,130.502,147.244z"/>
	<path fill="#FDFDFD" d="M134.899,143.774c-0.001,0.068-0.019,0.126-0.085,0.151c-0.071,0.027-0.12-0.014-0.15-0.072
		c-0.028-0.054-0.046-0.113-0.064-0.171c-0.397-1.279-0.792-2.56-1.193-3.838c-0.038-0.122-0.01-0.167,0.104-0.21
		c0.137-0.052,0.139,0.043,0.163,0.122c0.397,1.292,0.794,2.585,1.191,3.877C134.878,143.68,134.887,143.729,134.899,143.774z"/>
	<path fill="#FEFEFE" d="M126.151,143.794c0.019-0.059,0.036-0.112,0.054-0.164c0.444-1.27,0.889-2.539,1.329-3.811
		c0.039-0.111,0.071-0.154,0.198-0.115c0.15,0.045,0.093,0.126,0.063,0.209c-0.444,1.263-0.889,2.526-1.335,3.789
		c-0.02,0.057-0.043,0.115-0.073,0.168c-0.032,0.057-0.08,0.093-0.152,0.067C126.162,143.912,126.162,143.849,126.151,143.794z"/>
	<path fill="#FDFDFD" d="M135.933,143.049c-0.002,0.074-0.017,0.131-0.087,0.154c-0.072,0.024-0.118-0.016-0.149-0.074
		c-0.023-0.043-0.04-0.089-0.054-0.136c-0.377-1.213-0.753-2.427-1.13-3.64c-0.028-0.089-0.036-0.153,0.068-0.206
		c0.104-0.053,0.144-0.06,0.184,0.071c0.373,1.233,0.755,2.465,1.133,3.696C135.912,142.962,135.922,143.009,135.933,143.049z"/>
	<path fill="#FDFDFD" d="M125.125,143.042c0.016-0.049,0.029-0.096,0.046-0.142c0.427-1.184,0.854-2.368,1.285-3.55
		c0.021-0.057,0.004-0.187,0.141-0.121c0.097,0.047,0.17,0.078,0.114,0.227c-0.435,1.168-0.857,2.341-1.284,3.512
		c-0.019,0.051-0.04,0.103-0.068,0.15c-0.032,0.056-0.079,0.098-0.151,0.072C125.141,143.165,125.13,143.104,125.125,143.042z"/>
	<path fill="#FDFDFD" d="M135.777,138.387c0.324,1.062,0.645,2.115,0.965,3.168c0.004,0.012,0.004,0.024,0.008,0.036
		c0.028,0.097,0.062,0.209-0.068,0.246c-0.134,0.039-0.159-0.089-0.187-0.176c-0.11-0.344-0.212-0.69-0.317-1.035
		c-0.191-0.626-0.374-1.254-0.58-1.875C135.531,138.552,135.589,138.456,135.777,138.387z"/>
	<path fill="#FDFDFD" d="M125.488,138.557c0.235,0.136,0.234,0.136,0.141,0.373c-0.356,0.905-0.71,1.811-1.068,2.715
		c-0.04,0.101-0.064,0.271-0.216,0.216c-0.168-0.061-0.069-0.209-0.028-0.315c0.366-0.947,0.736-1.892,1.105-2.838
		C125.442,138.657,125.465,138.607,125.488,138.557z"/>
	<path fill="#FDFDFD" d="M133.246,142.447c0.011,0.102-0.016,0.165-0.09,0.186c-0.071,0.02-0.113-0.031-0.143-0.088
		c-0.02-0.038-0.036-0.078-0.049-0.118c-0.237-0.757-0.474-1.514-0.708-2.272c-0.02-0.065-0.091-0.151,0.051-0.182
		c0.104-0.023,0.173-0.041,0.215,0.102c0.227,0.766,0.467,1.529,0.703,2.292C133.235,142.402,133.243,142.437,133.246,142.447z"/>
	<path fill="#FDFDFD" d="M128.005,142.465c0.01-0.04,0.019-0.088,0.033-0.135c0.218-0.732,0.436-1.464,0.654-2.196
		c0.027-0.091,0.045-0.172,0.18-0.143c0.115,0.025,0.144,0.054,0.106,0.176c-0.232,0.74-0.455,1.484-0.682,2.226
		c-0.016,0.052-0.034,0.105-0.06,0.153c-0.03,0.055-0.073,0.1-0.147,0.075C128.017,142.596,128.007,142.537,128.005,142.465z"/>
	<path fill="#F1F1F1" d="M130.311,135.137c0.085,0.02,0.2,0.019,0.208,0.119c0.005,0.068-0.094,0.111-0.169,0.112
		c-0.092,0.001-0.204-0.027-0.212-0.127C130.132,135.167,130.242,135.157,130.311,135.137z"/>
</g>
<g opacity="0.1">
	<g>
		<path fill="#6B6B6B" d="M48.955,171.484c-0.249-11.128,0.219-22.22,1.405-33.287c0.018-0.166-0.242-0.165-0.26,0
			c-1.186,11.068-1.654,22.159-1.405,33.287C48.699,171.651,48.959,171.651,48.955,171.484L48.955,171.484z"/>
	</g>
</g>
<g opacity="0.1">
	<g>
		<path fill="#6B6B6B" d="M150.754,138.196c1.186,11.068,1.654,22.159,1.405,33.287c-0.004,0.168,0.256,0.167,0.26,0
			c0.249-11.128-0.219-22.22-1.405-33.287C150.996,138.032,150.736,138.03,150.754,138.196L150.754,138.196z"/>
	</g>
</g>
<polygon fill="#FF3424" points="24.849,142.738 49.659,144.836 49.485,146.932 24.645,144.835 "/>
<polygon points="24.849,141.873 49.659,143.97 49.485,146.067 24.645,143.97 "/>
<polygon fill="#FF3424" points="175.336,143.171 151.697,145.268 151.862,147.365 175.531,145.268 "/>
<polygon points="175.336,142.305 151.697,144.403 151.862,146.499 175.531,144.402 "/>
<polygon fill="#EFB087" points="24.645,144.835 23.359,160 49.134,160 49.485,146.932 "/>
<polygon fill="#EFB087" points="175.725,145.412 176.666,160 151.697,160 151.862,147.365 "/>
</svg>
